<svg width="25" height="32" viewBox="0 0 25 32" fill="none" xmlns="http://www.w3.org/2000/svg">
<path d="M17.3545 0.5H17.3564C18.2788 0.49712 19.1997 0.748759 20.0674 1.25098L20.0684 1.25195C20.906 1.73493 21.6806 2.4445 22.3447 3.35156L22.3457 3.35254C23.0086 4.25599 23.5438 5.33852 23.917 6.54199V6.54297C24.3039 7.79569 24.5028 9.12851 24.5 10.5029V10.5039C24.5 11.7977 24.3105 13.1521 23.9307 14.5361L23.9297 14.5371C23.6147 15.693 23.1551 16.8985 22.5674 18.1211C21.6365 20.0549 20.3513 22.0812 18.748 24.1436C16.0859 27.5654 13.4538 29.9262 13.3516 30.0176L12.667 30.6289C12.5965 30.6915 12.5383 30.7061 12.5 30.7061C12.4617 30.7061 12.4035 30.6916 12.333 30.6289L11.6484 30.0176L11.6406 30.0107L11.6377 30.0078C11.6356 30.0059 11.6325 30.0032 11.6289 30C11.6215 29.9935 11.6111 29.9848 11.5986 29.9736C11.5736 29.9512 11.5394 29.9195 11.4961 29.8799C11.4096 29.8007 11.288 29.6884 11.1367 29.5449C10.8339 29.2576 10.4114 28.8463 9.90918 28.3311C8.90397 27.2999 7.58046 25.853 6.25195 24.1436C4.64872 22.0812 3.36354 20.0549 2.43262 18.1211C1.8452 16.8992 1.38749 15.6934 1.06934 14.5361C0.6895 13.1521 0.500018 11.7977 0.5 10.5039C0.5 9.12889 0.698133 7.79563 1.08496 6.54297C1.45709 5.33836 1.99343 4.25496 2.65723 3.35254V3.35156C3.32477 2.44059 4.09383 1.73704 4.93457 1.25195L4.93555 1.25098C5.80412 0.748288 6.71386 0.500001 7.64844 0.5C8.94244 0.5 10.2222 0.992496 11.3525 1.95312C11.6232 2.18315 11.8817 2.43674 12.127 2.71387L12.501 3.1377L12.876 2.71387C13.1212 2.43676 13.3798 2.18315 13.6504 1.95312C14.7807 0.992518 16.0605 0.5 17.3545 0.5Z" stroke="#FF0000"/>
</svg>
